<svg version="1.1" xmlns="http://www.w3.org/2000/svg" xmlns:xlink="http://www.w3.org/1999/xlink" width="133.22071" height="87.48882" viewBox="0,0,133.22071,87.48882"><g transform="translate(-154.10564,-133.58135)"><g data-paper-data="{&quot;isPaintingLayer&quot;:true}" fill="none" fill-rule="nonzero" stroke="none" stroke-width="none" stroke-linecap="none" stroke-linejoin="none" stroke-miterlimit="10" stroke-dasharray="" stroke-dashoffset="0" font-family="none" font-weight="none" font-size="none" text-anchor="none" style="mix-blend-mode: normal"><path d="M221.55795,211.5169c-5.62875,-4.14817 -16.54182,-12.87863 -11.35221,-17.74472c5.1886,-4.86544 16.47315,13.6464 19.9211,16.09401c0,0 5.98773,-2.21333 5.33132,1.5007c-0.65566,3.71433 -5.23496,1.80929 -5.23496,1.80929c0,0 5.34224,1.88388 2.49592,4.76936c-2.84626,2.8856 -4.46431,-0.50748 -4.76123,-1.77329c0,0 0.87404,3.92441 -1.92238,4.13375c-2.79697,0.20836 -3.2901,-3.59999 -0.78523,-5.07425c0,0 -0.94993,-1.69405 -3.69231,-3.71488v0v0v0v0z" data-paper-data="{&quot;origPos&quot;:null,&quot;origRot&quot;:0}" id="Back_Leg2" fill="#e29339" stroke="#000000" stroke-width="1.52831" stroke-linecap="butt" stroke-linejoin="round"/><path d="M191.54972,156.88939v0v0v0v0c-2.09162,-1.90856 -3.90182,-3.49336 -3.9013,-3.49437c-1.34157,2.57917 -5.16997,2.28388 -5.10711,-0.52001c0.06285,-2.80389 4.02717,-2.13491 4.02717,-2.13491c-1.27877,-0.23038 -4.75204,-1.66976 -2.01754,-4.66164c2.73397,-2.99413 4.89175,2.24407 4.89175,2.24407c0,0 -2.14115,-4.47258 1.53402,-5.32122c3.67491,-0.84941 1.77621,5.24549 1.77621,5.24549c2.6243,3.31514 20.24056,13.51365 15.65219,18.9479c-4.58897,5.43433 -11.8227,-5.70967 -16.85538,-10.30529z" data-paper-data="{&quot;origPos&quot;:null,&quot;origRot&quot;:0}" id="Back_Leg1" fill="#e29339" stroke="#000000" stroke-width="1.52831" stroke-linecap="butt" stroke-linejoin="round"/><path d="M243.94968,147.16762v0v0v0v0c-0.46104,-2.79308 -0.90084,-5.15909 -0.90036,-5.15807c-2.65027,1.19381 -5.4738,-1.40787 -3.68831,-3.57068c1.78548,-2.16283 4.48423,0.81714 4.48423,0.81714c-0.86153,-0.97261 -2.69734,-4.25432 1.30244,-4.91051c4.00076,-0.65828 2.45169,4.79115 2.45169,4.79115c0,0 1.08804,-4.83784 4.49941,-3.22862c3.41155,1.60843 -1.8528,5.21808 -1.8528,5.21808c0.00765,4.22884 7.52686,23.14441 0.5585,24.57034c-6.96866,1.42646 -5.74835,-11.80394 -6.85478,-18.52883z" data-paper-data="{&quot;origPos&quot;:null,&quot;origRot&quot;:0}" id="Front_Leg2" fill="#e29339" stroke="#000000" stroke-width="1.52831" stroke-linecap="butt" stroke-linejoin="round"/><path d="M258.4586,206.19862v0v0v0v0c0.91572,2.67914 1.73998,4.93988 1.74056,4.93949c2.4166,-1.61573 5.63174,0.48445 4.22776,2.91273c-1.40393,2.42729 -4.55759,-0.06511 -4.55759,-0.06511c1.01074,0.81627 3.36294,3.74954 -0.47314,5.05774c-3.83777,1.30975 -3.20973,-4.32096 -3.20973,-4.32096c0,0 -0.27424,4.95233 -3.90393,3.92829c-3.63135,-1.02363 0.96533,-5.45316 0.96533,-5.45316c-0.70679,-4.16939 -11.24689,-21.5837 -4.60974,-24.14099c6.63667,-2.55795 7.61798,10.69258 9.82049,17.14199z" data-paper-data="{&quot;origPos&quot;:null,&quot;origRot&quot;:0}" id="Front_Leg1" fill="#e29339" stroke="#000000" stroke-width="1.52831" stroke-linecap="butt" stroke-linejoin="round"/><path d="M255.8503,162.5483v0v0v0v0c2.8734,1.9749 5.9732,8.5986 5.7198,15.3222c0.0458,7.144 -5.0529,15.5333 -9.046,17.5997c-8.4262,4.3608 -17.6299,1.3941 -24.0195,1.8545c-4.9113,0.354 -8.2228,5.7404 -16.9705,5.3028c-14.405,-0.7195 -24.9447,-8.7194 -25.034,-22.1142c-0.0893,-13.3955 11.6076,-19.1992 22.9493,-20.0649c7.6906,-0.588 14.4829,4.1339 18.7631,3.763c8.1692,-0.7084 21.3273,-5.9997 27.6378,-1.6631z" data-paper-data="{&quot;origPos&quot;:null}" id="Body" fill="#e29339" stroke="#000000" stroke-width="1.52831" stroke-linecap="butt" stroke-linejoin="miter"/><path d="M273.3372,158.7392l3.2326,-8.0398" id="Whisker6" fill="none" stroke="#000000" stroke-width="1.52831" stroke-linecap="round" stroke-linejoin="miter"/><path d="M276.6223,160.4031l5.1337,-6.4165" id="Whisker5" fill="none" stroke="#000000" stroke-width="1.52831" stroke-linecap="round" stroke-linejoin="miter"/><path d="M286.1885,160.9579l-6.1761,1.7952" id="Whisker4" fill="none" stroke="#000000" stroke-width="1.52831" stroke-linecap="round" stroke-linejoin="miter"/><path d="M274.8341,196.6093l3.8882,6.1356" id="Whisker3" fill="none" stroke="#000000" stroke-width="1.52831" stroke-linecap="round" stroke-linejoin="miter"/><path d="M284.0893,199.9557l-6.0902,-5.5159" id="Whisker2" fill="none" stroke="#000000" stroke-width="1.52831" stroke-linecap="round" stroke-linejoin="miter"/><path d="M280.1783,192.315l6.3839,0.7866" id="Whisker1" fill="none" stroke="#000000" stroke-width="1.52831" stroke-linecap="round" stroke-linejoin="miter"/><path d="M248.9496,161.9609c21.5557,-17.4983 26.0977,-2.0102 26.0977,-2.0102c0,0 0.0733,0.0441 0.1116,0.0631c4.5089,2.2866 7.6916,3.0757 7.3407,18.4521c-0.4092,17.9382 -7.6655,18.1434 -7.6655,18.1434c-7.2539,14.9533 -24.8467,-3.5885 -24.8467,-3.5885" id="Head" fill="#e29339" stroke="#000000" stroke-width="1.52831" stroke-linecap="butt" stroke-linejoin="round"/><g id="L_Eye" stroke-width="0.76416" stroke-linecap="butt" stroke-linejoin="miter"><path d="M274.1305,188.0908c0.027,-0.7178 0.3432,-1.3567 0.8314,-1.8101c0.4888,-0.4526 1.1497,-0.7198 1.8675,-0.6928c0.7178,0.0271 1.3566,0.3433 1.81,0.8314c0.4527,0.4889 0.7199,1.1497 0.6928,1.8675c-0.027,0.7178 -0.3432,1.3567 -0.8314,1.8101c-0.4889,0.4526 -1.1497,0.7198 -1.8675,0.6928c-0.7178,-0.0271 -1.3566,-0.3433 -1.81,-0.8314c-0.4527,-0.4889 -0.7199,-1.1497 -0.6928,-1.8675v0z" id="White" fill="#ffffff" stroke="#000000"/><path d="M275.6307,187.5654c0.0169,-0.4475 0.2139,-0.8461 0.519,-1.1283c0.3043,-0.2829 0.7166,-0.4494 1.1641,-0.4325c0.4475,0.0168 0.8461,0.2139 1.1282,0.5189c0.283,0.3043 0.4494,0.7166 0.4326,1.1641c-0.0169,0.4475 -0.2139,0.8461 -0.519,1.1283c-0.3043,0.2829 -0.7166,0.4494 -1.1641,0.4325c-0.4475,-0.0169 -0.8461,-0.2139 -1.1282,-0.5189c-0.283,-0.3043 -0.4494,-0.7167 -0.4326,-1.1641v0z" id="Pupil" fill="#000000" stroke="none"/></g><g id="R_Eye" stroke-width="0.76416" stroke-linecap="butt" stroke-linejoin="miter"><path d="M275.0249,167.564c0.0271,-0.7178 0.3433,-1.3566 0.8314,-1.8101c0.4889,-0.4526 1.1497,-0.7198 1.8675,-0.6927c0.7178,0.027 1.3567,0.3432 1.8101,0.8313c0.4526,0.4889 0.7198,1.1498 0.6928,1.8676c-0.0271,0.7177 -0.3433,1.3566 -0.8314,1.81c-0.4889,0.4526 -1.1497,0.7199 -1.8675,0.6928c-0.7178,-0.0271 -1.3567,-0.3432 -1.8101,-0.8314c-0.4526,-0.4889 -0.7198,-1.1497 -0.6928,-1.8675v0z" id="White_1_" fill="#ffffff" stroke="#000000"/><path d="M276.5252,167.0386c0.0169,-0.4475 0.2139,-0.8461 0.5189,-1.1282c0.3043,-0.283 0.7167,-0.4494 1.1641,-0.4326c0.4475,0.0169 0.8462,0.2139 1.1283,0.519c0.2829,0.3043 0.4494,0.7166 0.4325,1.1641c-0.0168,0.4474 -0.2139,0.8461 -0.5189,1.1282c-0.3043,0.283 -0.7166,0.4494 -1.1641,0.4326c-0.4475,-0.0169 -0.8461,-0.2139 -1.1283,-0.519c-0.2829,-0.3043 -0.4494,-0.7166 -0.4325,-1.1641v0z" id="Pupil_1_" fill="#000000" stroke="none"/></g><path d="M281.5109,178.3813c0.0383,-1.0163 0.2566,-1.9296 0.5782,-2.585c0.3217,-0.6563 0.7472,-1.0532 1.1991,-1.0361c0.4518,0.017 0.8463,0.4448 1.1176,1.1234c0.2714,0.6778 0.4203,1.6049 0.382,2.6212c-0.0383,1.0164 -0.2565,1.9296 -0.5782,2.5851c-0.3217,0.6562 -0.7472,1.0531 -1.199,1.0361c-0.4519,-0.017 -0.8463,-0.4448 -1.1177,-1.1234c-0.2714,-0.6778 -0.4203,-1.6049 -0.382,-2.6213v0z" id="Nose" fill="#ec008c" stroke="#000000" stroke-width="1.30982" stroke-linecap="butt" stroke-linejoin="miter"/><g id="L_Ear"><path d="M259.5572,197.8191c-2.8617,-0.5002 -12.3021,2.02 -13.0553,1.0052c-0.754,-1.0157 0.7884,-1.7666 2.4457,-4.3087c1.6573,-2.5413 5.28,-9.9937 5.28,-9.9937" id="Outer_Ear" fill="#e29339" stroke="#000000" stroke-width="1.52831" stroke-linecap="round" stroke-linejoin="round"/><path d="M249.8455,196.7862v0v0v0v0c0,0 4.2394,-5.0501 5.9645,-8.6205c0.562,2.1937 2.2168,5.867 2.9684,7.4721c0,0 -0.551,-0.0697 -0.5496,-0.0681c-1.8542,-0.3704 -8.3833,1.2165 -8.3833,1.2165z" id="Inner_Ear" fill="#58595b" stroke="none" stroke-width="0.76416" stroke-linecap="butt" stroke-linejoin="miter"/></g><g data-paper-data="{&quot;origPos&quot;:null}" id="R_Ear"><path d="M253.236,171.8953c0,0 -3.0514,-7.7039 -4.5127,-10.362c-1.4613,-2.6596 -2.9428,-3.5253 -2.1145,-4.4813c0.8274,-0.9545 10.0506,2.2684 12.9426,1.9859" id="Outer_Ear_1_" fill="#e29339" stroke="#000000" stroke-width="1.52831" stroke-linecap="round" stroke-linejoin="round"/><path d="M249.7903,159.3353c0,0 6.3912,2.0738 8.268,1.844c-0.0016,0.0023 0.5531,-0.0265 0.5531,-0.0265c-0.8703,1.544 -2.7968,5.0815 -3.5223,7.2275c-1.4523,-3.6902 -5.2988,-9.045 -5.2988,-9.045v0v0z" id="Inner_Ear_1_" fill="#58595b" stroke="none" stroke-width="0.76416" stroke-linecap="butt" stroke-linejoin="miter"/></g><path d="M190.7575,182.7568c-0.4905,2.1403 -2.6204,3.4831 -4.7648,3.0008c-7.2469,-1.6266 -12.8675,-0.875 -16.7057,2.2357c-6.3798,5.1698 -6.4353,15.5921 -6.4339,15.6946c0.0269,2.208 -1.7379,4.0127 -3.9436,4.0404c-2.2042,0.0278 -4.0126,-1.7387 -4.0397,-3.9429c-0.0071,-0.5829 -0.0631,-14.3336 9.3906,-21.9959c5.8308,-4.7248 13.7319,-6.0107 23.4811,-3.821c2.1505,0.4826 3.5031,2.6189 3.0205,4.7694c-0.0017,0.006 -0.0027,0.0121 -0.0045,0.0189v0v0v0z" id="Tail" fill="#e29339" stroke="#000000" stroke-width="1.52831" stroke-linecap="butt" stroke-linejoin="miter"/></g></g></svg>