<svg version="1.1" xmlns="http://www.w3.org/2000/svg" xmlns:xlink="http://www.w3.org/1999/xlink" width="125.69932" height="75.45485"><defs><linearGradient x1="272.09193" y1="151.24529" x2="298.93054" y2="151.24529" gradientUnits="userSpaceOnUse" id="color-1"><stop offset="0" stop-color="#000000"/><stop offset="1" stop-color="#8d8d8d"/></linearGradient><linearGradient x1="272.13576" y1="218.06423" x2="298.97436" y2="218.06423" gradientUnits="userSpaceOnUse" id="color-2"><stop offset="0" stop-color="#000000"/><stop offset="1" stop-color="#8d8d8d"/></linearGradient><linearGradient x1="188.01869" y1="185.18564" x2="313.21801" y2="185.18564" gradientUnits="userSpaceOnUse" id="color-3"><stop offset="0" stop-color="#9966ff"/><stop offset="1" stop-color="#f3ecff"/></linearGradient><linearGradient x1="192.96077" y1="151.96844" x2="219.49185" y2="151.96844" gradientUnits="userSpaceOnUse" id="color-4"><stop offset="0" stop-color="#000000"/><stop offset="1" stop-color="#8d8d8d"/></linearGradient><linearGradient x1="193.31211" y1="218.46075" x2="219.84319" y2="218.46075" gradientUnits="userSpaceOnUse" id="color-5"><stop offset="0" stop-color="#000000"/><stop offset="1" stop-color="#8d8d8d"/></linearGradient></defs><g transform="translate(-187.76869,-147.10429)"><g data-paper-data="{&quot;isPaintingLayer&quot;:true}" fill="none" fill-rule="nonzero" stroke="#001313" stroke-width="none" stroke-linecap="none" stroke-linejoin="miter" stroke-miterlimit="10" stroke-dasharray="" stroke-dashoffset="0" font-family="none" font-weight="none" font-size="none" text-anchor="none" style="mix-blend-mode: normal"><path d="M206.82182,155.00664v63.59969" data-paper-data="{&quot;origPos&quot;:null}" fill="none" stroke-width="4.5" stroke-linecap="round"/><path d="M287.36003,153.90755v64.30386" data-paper-data="{&quot;origPos&quot;:null}" fill="none" stroke-width="4.5" stroke-linecap="round"/><path d="M272.09193,155.13629v-7.78199h26.8386v7.78199z" data-paper-data="{&quot;origPos&quot;:null}" fill="url(#color-1)" stroke-width="0.5" stroke-linecap="butt"/><path d="M272.13576,221.95523v-7.78199h26.8386v7.78199z" data-paper-data="{&quot;origPos&quot;:null}" fill="url(#color-2)" stroke-width="0.5" stroke-linecap="butt"/><path d="M313.21801,185.18564c0,9.55302 -28.02682,17.29727 -62.59966,17.29727c-34.57283,0 -62.59966,-7.74425 -62.59966,-17.29727c0,-9.55302 28.02682,-17.29728 62.59966,-17.29728c34.57284,0 62.59966,7.74426 62.59966,17.29728z" data-paper-data="{&quot;origPos&quot;:null}" fill="url(#color-3)" stroke-width="0.5" stroke-linecap="butt"/><path d="M255.27291,185.39156c0,4.66279 -13.85685,8.44271 -30.95015,8.44271c-17.0933,0 -30.95015,-3.77993 -30.95015,-8.44271c0,-4.66279 13.85686,-8.44271 30.95015,-8.44271c17.0933,0 30.95015,3.77993 30.95015,8.44271z" data-paper-data="{&quot;origPos&quot;:null}" fill="#eaffb4" stroke-width="0.5" stroke-linecap="butt"/><path d="M192.96077,155.81683v-7.69678h26.53108v7.69678z" data-paper-data="{&quot;origPos&quot;:null}" fill="url(#color-4)" stroke-width="0.5" stroke-linecap="butt"/><path d="M193.31211,222.30915v-7.69678h26.53108v7.69678z" data-paper-data="{&quot;origPos&quot;:null}" fill="url(#color-5)" stroke-width="0.5" stroke-linecap="butt"/></g></g></svg>