<svg version="1.1" xmlns="http://www.w3.org/2000/svg" xmlns:xlink="http://www.w3.org/1999/xlink" width="133.22071" height="87.24546" viewBox="0,0,133.22071,87.24546"><g transform="translate(-154.10565,-136.03702)"><g data-paper-data="{&quot;isPaintingLayer&quot;:true}" fill="none" fill-rule="nonzero" stroke="none" stroke-width="none" stroke-linecap="none" stroke-linejoin="none" stroke-miterlimit="10" stroke-dasharray="" stroke-dashoffset="0" font-family="none" font-weight="none" font-size="none" text-anchor="none" style="mix-blend-mode: normal"><path d="M202.92143,206.26531c3.66168,-5.9567 11.44652,-17.56326 16.73054,-12.79987c5.2833,4.76243 -12.21733,17.5592 -14.36727,21.20021c0,0 2.70752,5.7811 -1.04847,5.43836c-3.75622,-0.34197 -2.24179,-5.06485 -2.24179,-5.06485c0,0 -1.42938,5.48137 -4.54333,2.88697c-3.11406,-2.59433 0.13143,-4.49114 1.3679,-4.89314c0,0 -3.83731,1.19997 -4.28036,-1.56907c-0.44211,-2.76966 3.31149,-3.58032 4.99055,-1.20787c0,0 1.60845,-1.08861 3.39227,-3.99075v0v0v0v0z" data-paper-data="{&quot;origPos&quot;:null,&quot;origRot&quot;:0}" id="Back_Leg2" fill="#e29339" stroke="#000000" stroke-width="1.52831" stroke-linecap="butt" stroke-linejoin="round"/><path d="M208.66539,153.87928v0v0v0v0c0.66494,-2.75233 1.18174,-5.10209 1.18287,-5.10213c-2.90645,0.0668 -4.49191,-3.43039 -2.0045,-4.726c2.4874,-1.29563 3.81085,2.50069 3.81085,2.50069c-0.41413,-1.2316 -0.82592,-4.96869 3.11323,-4.01363c3.94083,0.95351 0.38993,5.36776 0.38993,5.36776c0,0 2.88801,-4.03088 5.40209,-1.21904c2.51463,2.81124 -3.74112,4.0834 -3.74112,4.0834c-1.64096,3.89672 -2.09206,24.24711 -9.06453,22.844c-6.97284,-1.4036 -0.69172,-13.111 0.9112,-19.73506z" data-paper-data="{&quot;origPos&quot;:null,&quot;origRot&quot;:0}" id="Back_Leg1" fill="#e29339" stroke="#000000" stroke-width="1.52831" stroke-linecap="butt" stroke-linejoin="round"/><path d="M257.70609,145.87734v0v0v0v0c1.87125,-2.1242 3.42524,-3.96176 3.42476,-3.96075c-2.6013,-1.29705 -2.373,-5.12965 0.43155,-5.11538c2.80456,0.01425 2.20436,3.98959 2.20436,3.98959c0.2081,-1.28254 1.58794,-4.78051 4.62674,-2.09826c3.04103,2.68168 -2.15908,4.92994 -2.15908,4.92994c0,0 4.43482,-2.21832 5.34701,1.44159c0.91291,3.65956 -5.21313,1.86666 -5.21313,1.86666c-3.26997,2.6815 -13.16078,20.47221 -18.67389,15.97809c-5.5137,-4.49401 5.50399,-11.91984 10.0117,-17.03148z" data-paper-data="{&quot;origPos&quot;:null,&quot;origRot&quot;:0}" id="Front_Leg2" fill="#e29339" stroke="#000000" stroke-width="1.52831" stroke-linecap="butt" stroke-linejoin="round"/><path d="M242.225,213.6136v0v0v0v0c-1.96257,2.04075 -3.59503,3.80864 -3.59442,3.80897c2.54288,1.40866 2.14782,5.22859 -0.65381,5.09221c-2.80072,-0.13679 -2.02882,-4.08164 -2.02882,-4.08164c-0.26292,1.27231 -1.79371,4.70649 -4.7131,1.89507c-2.92154,-2.81222 2.37187,-4.8319 2.37187,-4.8319c0,0 -4.52831,2.02364 -5.27978,-1.67212c-0.75259,-3.69704 5.29,-1.63854 5.29,-1.63854c3.3831,-2.53732 14.03909,-19.88097 19.35143,-15.15122c5.31271,4.72903 -6.01808,11.66823 -10.74336,16.5792z" data-paper-data="{&quot;origPos&quot;:null,&quot;origRot&quot;:0}" id="Front_Leg1" fill="#e29339" stroke="#000000" stroke-width="1.52831" stroke-linecap="butt" stroke-linejoin="round"/><path d="M255.8503,162.5483v0v0v0v0c2.8734,1.9749 5.9732,8.5986 5.7198,15.3222c0.0458,7.144 -5.0529,15.5333 -9.046,17.5997c-8.4262,4.3608 -17.6299,1.3941 -24.0195,1.8545c-4.9113,0.354 -8.2228,5.7404 -16.9705,5.3028c-14.405,-0.7195 -24.9447,-8.7194 -25.034,-22.1142c-0.0893,-13.3955 11.6076,-19.1992 22.9493,-20.0649c7.6906,-0.588 14.4829,4.1339 18.7631,3.763c8.1692,-0.7084 21.3273,-5.9997 27.6378,-1.6631z" data-paper-data="{&quot;origPos&quot;:null}" id="Body" fill="#e29339" stroke="#000000" stroke-width="1.52831" stroke-linecap="butt" stroke-linejoin="miter"/><path d="M273.3372,158.7392l3.2326,-8.0398" id="Whisker6" fill="none" stroke="#000000" stroke-width="1.52831" stroke-linecap="round" stroke-linejoin="miter"/><path d="M276.6223,160.4031l5.1337,-6.4165" id="Whisker5" fill="none" stroke="#000000" stroke-width="1.52831" stroke-linecap="round" stroke-linejoin="miter"/><path d="M280.0124,162.7531l6.1761,-1.7952" id="Whisker4" fill="none" stroke="#000000" stroke-width="1.52831" stroke-linecap="round" stroke-linejoin="miter"/><path d="M274.8341,196.6093l3.8882,6.1356" id="Whisker3" fill="none" stroke="#000000" stroke-width="1.52831" stroke-linecap="round" stroke-linejoin="miter"/><path d="M284.0893,199.9557l-6.0902,-5.5159" id="Whisker2" fill="none" stroke="#000000" stroke-width="1.52831" stroke-linecap="round" stroke-linejoin="miter"/><path d="M286.5622,193.1016l-6.3839,-0.7866" id="Whisker1" fill="none" stroke="#000000" stroke-width="1.52831" stroke-linecap="round" stroke-linejoin="miter"/><path d="M248.9496,161.9609c21.5557,-17.4983 26.0977,-2.0102 26.0977,-2.0102c0,0 0.0733,0.0441 0.1116,0.0631c4.5089,2.2866 7.6916,3.0757 7.3407,18.4521c-0.4092,17.9382 -7.6655,18.1434 -7.6655,18.1434c-7.2539,14.9533 -24.8467,-3.5885 -24.8467,-3.5885" id="Head" fill="#e29339" stroke="#000000" stroke-width="1.52831" stroke-linecap="butt" stroke-linejoin="round"/><g id="L_Eye" stroke-width="0.76416" stroke-linecap="butt" stroke-linejoin="miter"><path d="M274.1305,188.0908c0.027,-0.7178 0.3432,-1.3567 0.8314,-1.8101c0.4888,-0.4526 1.1497,-0.7198 1.8675,-0.6928c0.7178,0.0271 1.3566,0.3433 1.81,0.8314c0.4527,0.4889 0.7199,1.1497 0.6928,1.8675c-0.027,0.7178 -0.3432,1.3567 -0.8314,1.8101c-0.4889,0.4526 -1.1497,0.7198 -1.8675,0.6928c-0.7178,-0.0271 -1.3566,-0.3433 -1.81,-0.8314c-0.4527,-0.4889 -0.7199,-1.1497 -0.6928,-1.8675z" id="White" fill="#ffffff" stroke="#000000"/><path d="M275.6307,187.5654c0.0169,-0.4475 0.2139,-0.8461 0.519,-1.1283c0.3043,-0.2829 0.7166,-0.4494 1.1641,-0.4325c0.4475,0.0168 0.8461,0.2139 1.1282,0.5189c0.283,0.3043 0.4494,0.7166 0.4326,1.1641c-0.0169,0.4475 -0.2139,0.8461 -0.519,1.1283c-0.3043,0.2829 -0.7166,0.4494 -1.1641,0.4325c-0.4475,-0.0169 -0.8461,-0.2139 -1.1282,-0.5189c-0.283,-0.3043 -0.4494,-0.7167 -0.4326,-1.1641z" id="Pupil" fill="#000000" stroke="none"/></g><g id="R_Eye" stroke-width="0.76416" stroke-linecap="butt" stroke-linejoin="miter"><path d="M275.0249,167.564c0.0271,-0.7178 0.3433,-1.3566 0.8314,-1.8101c0.4889,-0.4526 1.1497,-0.7198 1.8675,-0.6927c0.7178,0.027 1.3567,0.3432 1.8101,0.8313c0.4526,0.4889 0.7198,1.1498 0.6928,1.8676c-0.0271,0.7177 -0.3433,1.3566 -0.8314,1.81c-0.4889,0.4526 -1.1497,0.7199 -1.8675,0.6928c-0.7178,-0.0271 -1.3567,-0.3432 -1.8101,-0.8314c-0.4526,-0.4889 -0.7198,-1.1497 -0.6928,-1.8675z" id="White_1_" fill="#ffffff" stroke="#000000"/><path d="M276.5252,167.03859c0.0169,-0.4475 0.2139,-0.8461 0.5189,-1.1282c0.3043,-0.283 0.7167,-0.4494 1.1641,-0.4326c0.4475,0.0169 0.8462,0.2139 1.1283,0.519c0.2829,0.3043 0.4494,0.7166 0.4325,1.1641c-0.0168,0.4474 -0.2139,0.8461 -0.5189,1.1282c-0.3043,0.283 -0.7166,0.4494 -1.1641,0.4326c-0.4475,-0.0169 -0.8461,-0.2139 -1.1283,-0.519c-0.2829,-0.3043 -0.4494,-0.7166 -0.4325,-1.1641z" id="Pupil_1_" fill="#000000" stroke="none"/></g><path d="M281.5109,178.3813c0.0383,-1.0163 0.2566,-1.9296 0.5782,-2.585c0.3217,-0.6563 0.7472,-1.0532 1.1991,-1.0361c0.4518,0.017 0.8463,0.4448 1.1176,1.1234c0.2714,0.6778 0.4203,1.6049 0.382,2.6212c-0.0383,1.0164 -0.2565,1.9296 -0.5782,2.5851c-0.3217,0.6562 -0.7472,1.0531 -1.199,1.0361c-0.4519,-0.017 -0.8463,-0.4448 -1.1177,-1.1234c-0.2714,-0.6778 -0.4203,-1.6049 -0.382,-2.6213z" id="Nose" fill="#ec008c" stroke="#000000" stroke-width="1.30982" stroke-linecap="butt" stroke-linejoin="miter"/><g id="L_Ear"><path d="M259.5572,197.8191c-2.8617,-0.5002 -12.3021,2.02 -13.0553,1.0052c-0.754,-1.0157 0.7884,-1.7666 2.4457,-4.3087c1.6573,-2.5413 5.28,-9.9937 5.28,-9.9937" id="Outer_Ear" fill="#e29339" stroke="#000000" stroke-width="1.52831" stroke-linecap="round" stroke-linejoin="round"/><path d="M249.8455,196.7862v0v0v0v0c0,0 4.2394,-5.0501 5.9645,-8.6205c0.562,2.1937 2.2168,5.867 2.9684,7.4721c0,0 -0.551,-0.0697 -0.5496,-0.0681c-1.8542,-0.3704 -8.3833,1.2165 -8.3833,1.2165z" id="Inner_Ear" fill="#58595b" stroke="none" stroke-width="0.76416" stroke-linecap="butt" stroke-linejoin="miter"/></g><g data-paper-data="{&quot;origPos&quot;:null}" id="R_Ear"><path d="M253.236,171.8953c0,0 -3.0514,-7.7039 -4.5127,-10.362c-1.4613,-2.6596 -2.9428,-3.5253 -2.1145,-4.4813c0.8274,-0.9545 10.0506,2.2684 12.9426,1.9859" id="Outer_Ear_1_" fill="#e29339" stroke="#000000" stroke-width="1.52831" stroke-linecap="round" stroke-linejoin="round"/><path d="M249.7903,159.3353c0,0 6.3912,2.0738 8.268,1.844c-0.0016,0.0023 0.5531,-0.0265 0.5531,-0.0265c-0.8703,1.544 -2.7968,5.0815 -3.5223,7.2275c-1.4523,-3.6902 -5.2988,-9.045 -5.2988,-9.045z" id="Inner_Ear_1_" fill="#58595b" stroke="none" stroke-width="0.76416" stroke-linecap="butt" stroke-linejoin="miter"/></g><path d="M190.7575,182.7568c-0.4905,2.1403 -2.6204,3.4831 -4.7648,3.0008c-7.2469,-1.6266 -12.8675,-0.875 -16.7057,2.2357c-6.3798,5.1698 -6.4353,15.5921 -6.4339,15.6946c0.0269,2.208 -1.7379,4.0127 -3.9436,4.0404c-2.2042,0.0278 -4.0126,-1.7387 -4.0397,-3.9429c-0.0071,-0.5829 -0.0631,-14.3336 9.3906,-21.9959c5.8308,-4.7248 13.7319,-6.0107 23.4811,-3.821c2.1505,0.4826 3.5031,2.6189 3.0205,4.7694c-0.0017,0.006 -0.0027,0.0121 -0.0045,0.0189z" id="Tail" fill="#e29339" stroke="#000000" stroke-width="1.52831" stroke-linecap="butt" stroke-linejoin="miter"/></g></g></svg>