<svg version="1.1" xmlns="http://www.w3.org/2000/svg" xmlns:xlink="http://www.w3.org/1999/xlink" width="133.22071" height="89.14356" viewBox="0,0,133.22071,89.14356"><g transform="translate(-154.10565,-136.34958)"><g data-paper-data="{&quot;isPaintingLayer&quot;:true}" fill="none" fill-rule="nonzero" stroke="none" stroke-width="none" stroke-linecap="none" stroke-linejoin="none" stroke-miterlimit="10" stroke-dasharray="" stroke-dashoffset="0" font-family="none" font-weight="none" font-size="none" text-anchor="none" style="mix-blend-mode: normal"><path d="M207.63464,210.00404c1.53565,-6.82143 5.14292,-20.32342 11.68465,-17.5276c6.54073,2.79515 -5.87352,20.56916 -6.72869,24.71016c0,0 4.43356,4.59297 0.76894,5.48487c-3.66459,0.89271 -3.761,-4.0661 -3.761,-4.0661c0,0 0.42248,5.6489 -3.36377,4.20256c-3.78633,-1.44624 -1.32987,-4.29174 -0.29018,-5.07245c0,0 -3.24204,2.37783 -4.55782,-0.09857c-1.3151,-2.47729 1.97379,-4.45969 4.33059,-2.75872c0,0 1.16931,-1.55077 1.91732,-4.87416v0v0v0v0z" data-paper-data="{&quot;origPos&quot;:null,&quot;origRot&quot;:0}" id="Back_Leg2" fill="#e29339" stroke="#000000" stroke-width="1.52831" stroke-linecap="butt" stroke-linejoin="round"/><path d="M205.25878,152.5365v0v0v0v0c-0.02349,-2.83142 -0.09291,-5.23633 -0.09182,-5.23664c-2.80319,0.77075 -5.1906,-2.23661 -3.09238,-4.09759c2.09821,-1.861 4.30412,1.50017 4.30412,1.50017c-0.70087,-1.09413 -2.00804,-4.61929 2.04511,-4.64962c4.05442,-0.03225 1.68204,5.11231 1.68204,5.11231c0,0 1.82245,-4.61164 4.94421,-2.49466c3.12216,2.11626 -2.63726,4.8698 -2.63726,4.8698c-0.64534,4.1786 3.86004,24.02913 -3.24443,24.3616c-7.10495,0.33208 -3.85557,-12.55035 -3.90959,-19.36538z" data-paper-data="{&quot;origPos&quot;:null,&quot;origRot&quot;:0}" id="Back_Leg1" fill="#e29339" stroke="#000000" stroke-width="1.52831" stroke-linecap="butt" stroke-linejoin="round"/><path d="M254.35386,147.3168v0v0v0v0c1.25254,-2.5387 2.27354,-4.71792 2.27334,-4.71682c-2.84954,-0.57378 -3.62863,-4.3333 -0.91741,-5.05091c2.71123,-0.71763 3.16852,3.27666 3.16852,3.27666c-0.13357,-1.29243 0.2863,-5.0292 3.91944,-3.23225c3.63515,1.79583 -0.79871,5.3224 -0.79871,5.3224c0,0 3.70285,-3.2981 5.53794,-0.00272c1.83569,3.29485 -4.54594,3.16158 -4.54594,3.16158c-2.45752,3.44147 -7.36649,23.19595 -13.86083,20.2951c-6.49489,-2.9006 2.205,-12.94274 5.22368,-19.05305z" data-paper-data="{&quot;origPos&quot;:null,&quot;origRot&quot;:0}" id="Front_Leg2" fill="#e29339" stroke="#000000" stroke-width="1.52831" stroke-linecap="butt" stroke-linejoin="round"/><path d="M245.31753,214.62414v0v0v0v0c-1.29036,2.52018 -2.34338,4.68386 -2.3427,4.684c2.84115,0.61514 3.56494,4.38662 0.84309,5.06431c-2.7211,0.67703 -3.12011,-3.32277 -3.12011,-3.32277c0.11532,1.29406 -0.35962,5.02385 -3.96597,3.17422c-3.60864,-1.84978 0.87702,-5.31073 0.87702,-5.31073c0,0 -3.75195,3.24401 -5.53769,-0.07781c-1.78718,-3.32272 4.59235,-3.09503 4.59235,-3.09503c2.50723,-3.40546 7.70649,-23.0859 14.15748,-20.08987c6.45114,2.99523 -2.39591,12.90831 -5.50346,18.97371z" data-paper-data="{&quot;origPos&quot;:null,&quot;origRot&quot;:0}" id="Front_Leg1" fill="#e29339" stroke="#000000" stroke-width="1.52831" stroke-linecap="butt" stroke-linejoin="round"/><path d="M255.8503,162.5483v0v0v0v0c2.8734,1.9749 5.9732,8.5986 5.7198,15.3222c0.0458,7.144 -5.0529,15.5333 -9.046,17.5997c-8.4262,4.3608 -17.6299,1.3941 -24.0195,1.8545c-4.9113,0.354 -8.2228,5.7404 -16.9705,5.3028c-14.405,-0.7195 -24.9447,-8.7194 -25.034,-22.1142c-0.0893,-13.3955 11.6076,-19.1992 22.9493,-20.0649c7.6906,-0.588 14.4829,4.1339 18.7631,3.763c8.1692,-0.7084 21.3273,-5.9997 27.6378,-1.6631z" data-paper-data="{&quot;origPos&quot;:null}" id="Body" fill="#e29339" stroke="#000000" stroke-width="1.52831" stroke-linecap="butt" stroke-linejoin="miter"/><path d="M273.3372,158.7392l3.2326,-8.0398" id="Whisker6" fill="none" stroke="#000000" stroke-width="1.52831" stroke-linecap="round" stroke-linejoin="miter"/><path d="M276.6223,160.4031l5.1337,-6.4165" id="Whisker5" fill="none" stroke="#000000" stroke-width="1.52831" stroke-linecap="round" stroke-linejoin="miter"/><path d="M286.1885,160.9579l-6.1761,1.7952" id="Whisker4" fill="none" stroke="#000000" stroke-width="1.52831" stroke-linecap="round" stroke-linejoin="miter"/><path d="M274.8341,196.6093l3.8882,6.1356" id="Whisker3" fill="none" stroke="#000000" stroke-width="1.52831" stroke-linecap="round" stroke-linejoin="miter"/><path d="M284.0893,199.9557l-6.0902,-5.5159" id="Whisker2" fill="none" stroke="#000000" stroke-width="1.52831" stroke-linecap="round" stroke-linejoin="miter"/><path d="M286.5622,193.1016l-6.3839,-0.7866" id="Whisker1" fill="none" stroke="#000000" stroke-width="1.52831" stroke-linecap="round" stroke-linejoin="miter"/><path d="M248.9496,161.9609c21.5557,-17.4983 26.0977,-2.0102 26.0977,-2.0102c0,0 0.0733,0.0441 0.1116,0.0631c4.5089,2.2866 7.6916,3.0757 7.3407,18.4521c-0.4092,17.9382 -7.6655,18.1434 -7.6655,18.1434c-7.2539,14.9533 -24.8467,-3.5885 -24.8467,-3.5885" id="Head" fill="#e29339" stroke="#000000" stroke-width="1.52831" stroke-linecap="butt" stroke-linejoin="round"/><g id="L_Eye" stroke-width="0.76416" stroke-linecap="butt" stroke-linejoin="miter"><path d="M274.1305,188.0908c0.027,-0.7178 0.3432,-1.3567 0.8314,-1.8101c0.4888,-0.4526 1.1497,-0.7198 1.8675,-0.6928c0.7178,0.0271 1.3566,0.3433 1.81,0.8314c0.4527,0.4889 0.7199,1.1497 0.6928,1.8675c-0.027,0.7178 -0.3432,1.3567 -0.8314,1.8101c-0.4889,0.4526 -1.1497,0.7198 -1.8675,0.6928c-0.7178,-0.0271 -1.3566,-0.3433 -1.81,-0.8314c-0.4527,-0.4889 -0.7199,-1.1497 -0.6928,-1.8675z" id="White" fill="#ffffff" stroke="#000000"/><path d="M275.6307,187.5654c0.0169,-0.4475 0.2139,-0.8461 0.519,-1.1283c0.3043,-0.2829 0.7166,-0.4494 1.1641,-0.4325c0.4475,0.0168 0.8461,0.2139 1.1282,0.5189c0.283,0.3043 0.4494,0.7166 0.4326,1.1641c-0.0169,0.4475 -0.2139,0.8461 -0.519,1.1283c-0.3043,0.2829 -0.7166,0.4494 -1.1641,0.4325c-0.4475,-0.0169 -0.8461,-0.2139 -1.1282,-0.5189c-0.283,-0.3043 -0.4494,-0.7167 -0.4326,-1.1641z" id="Pupil" fill="#000000" stroke="none"/></g><g id="R_Eye" stroke-width="0.76416" stroke-linecap="butt" stroke-linejoin="miter"><path d="M275.0249,167.564c0.0271,-0.7178 0.3433,-1.3566 0.8314,-1.8101c0.4889,-0.4526 1.1497,-0.7198 1.8675,-0.6927c0.7178,0.027 1.3567,0.3432 1.8101,0.8313c0.4526,0.4889 0.7198,1.1498 0.6928,1.8676c-0.0271,0.7177 -0.3433,1.3566 -0.8314,1.81c-0.4889,0.4526 -1.1497,0.7199 -1.8675,0.6928c-0.7178,-0.0271 -1.3567,-0.3432 -1.8101,-0.8314c-0.4526,-0.4889 -0.7198,-1.1497 -0.6928,-1.8675z" id="White_1_" fill="#ffffff" stroke="#000000"/><path d="M276.5252,167.0386c0.0169,-0.4475 0.2139,-0.8461 0.5189,-1.1282c0.3043,-0.283 0.7167,-0.4494 1.1641,-0.4326c0.4475,0.0169 0.8462,0.2139 1.1283,0.519c0.2829,0.3043 0.4494,0.7166 0.4325,1.1641c-0.0168,0.4474 -0.2139,0.8461 -0.5189,1.1282c-0.3043,0.283 -0.7166,0.4494 -1.1641,0.4326c-0.4475,-0.0169 -0.8461,-0.2139 -1.1283,-0.519c-0.2829,-0.3043 -0.4494,-0.7166 -0.4325,-1.1641z" id="Pupil_1_" fill="#000000" stroke="none"/></g><path d="M281.5109,178.3813c0.0383,-1.0163 0.2566,-1.9296 0.5782,-2.585c0.3217,-0.6563 0.7472,-1.0532 1.1991,-1.0361c0.4518,0.017 0.8463,0.4448 1.1176,1.1234c0.2714,0.6778 0.4203,1.6049 0.382,2.6212c-0.0383,1.0164 -0.2565,1.9296 -0.5782,2.5851c-0.3217,0.6562 -0.7472,1.0531 -1.199,1.0361c-0.4519,-0.017 -0.8463,-0.4448 -1.1177,-1.1234c-0.2714,-0.6778 -0.4203,-1.6049 -0.382,-2.6213z" id="Nose" fill="#ec008c" stroke="#000000" stroke-width="1.30982" stroke-linecap="butt" stroke-linejoin="miter"/><g id="L_Ear"><path d="M259.5572,197.8191c-2.8617,-0.5002 -12.3021,2.02 -13.0553,1.0052c-0.754,-1.0157 0.7884,-1.7666 2.4457,-4.3087c1.6573,-2.5413 5.28,-9.9937 5.28,-9.9937" id="Outer_Ear" fill="#e29339" stroke="#000000" stroke-width="1.52831" stroke-linecap="round" stroke-linejoin="round"/><path d="M249.8455,196.7862v0v0v0v0c0,0 4.2394,-5.0501 5.9645,-8.6205c0.562,2.1937 2.2168,5.867 2.9684,7.4721c0,0 -0.551,-0.0697 -0.5496,-0.0681c-1.8542,-0.3704 -8.3833,1.2165 -8.3833,1.2165z" id="Inner_Ear" fill="#58595b" stroke="none" stroke-width="0.76416" stroke-linecap="butt" stroke-linejoin="miter"/></g><g data-paper-data="{&quot;origPos&quot;:null}" id="R_Ear"><path d="M253.236,171.8953c0,0 -3.0514,-7.7039 -4.5127,-10.362c-1.4613,-2.6596 -2.9428,-3.5253 -2.1145,-4.4813c0.8274,-0.9545 10.0506,2.2684 12.9426,1.9859" id="Outer_Ear_1_" fill="#e29339" stroke="#000000" stroke-width="1.52831" stroke-linecap="round" stroke-linejoin="round"/><path d="M249.7903,159.3353c0,0 6.3912,2.0738 8.268,1.844c-0.0016,0.0023 0.5531,-0.0265 0.5531,-0.0265c-0.8703,1.544 -2.7968,5.0815 -3.5223,7.2275c-1.4523,-3.6902 -5.2988,-9.045 -5.2988,-9.045z" id="Inner_Ear_1_" fill="#58595b" stroke="none" stroke-width="0.76416" stroke-linecap="butt" stroke-linejoin="miter"/></g><path d="M190.7575,182.7568c-0.4905,2.1403 -2.6204,3.4831 -4.7648,3.0008c-7.2469,-1.6266 -12.8675,-0.875 -16.7057,2.2357c-6.3798,5.1698 -6.4353,15.5921 -6.4339,15.6946c0.0269,2.208 -1.7379,4.0127 -3.9436,4.0404c-2.2042,0.0278 -4.0126,-1.7387 -4.0397,-3.9429c-0.0071,-0.5829 -0.0631,-14.3336 9.3906,-21.9959c5.8308,-4.7248 13.7319,-6.0107 23.4811,-3.821c2.1505,0.4826 3.5031,2.6189 3.0205,4.7694c-0.0017,0.006 -0.0027,0.0121 -0.0045,0.0189z" id="Tail" fill="#e29339" stroke="#000000" stroke-width="1.52831" stroke-linecap="butt" stroke-linejoin="miter"/></g></g></svg>