<svg version="1.1" xmlns="http://www.w3.org/2000/svg" xmlns:xlink="http://www.w3.org/1999/xlink" width="133.22071" height="83.71531" viewBox="0,0,133.22071,83.71531"><g transform="translate(-154.10565,-136.09231)"><g data-paper-data="{&quot;isPaintingLayer&quot;:true}" fill="none" fill-rule="nonzero" stroke="none" stroke-width="none" stroke-linecap="none" stroke-linejoin="none" stroke-miterlimit="10" stroke-dasharray="" stroke-dashoffset="0" font-family="none" font-weight="none" font-size="none" text-anchor="none" style="mix-blend-mode: normal"><path d="M222.45057,211.13386c-6.6438,-2.17946 -19.74004,-7.05845 -16.33285,-13.3036c3.40644,-6.24422 19.91496,7.80918 23.95548,9.05552c0,0 4.995,-3.97513 5.53321,-0.24214c0.53901,3.73304 -4.40638,3.35591 -4.40638,3.35591c0,0 5.66344,0.1184 3.86246,3.74938c-1.80088,3.63107 -4.39904,0.91434 -5.07699,-0.19508c0,0 2.05767,3.45412 -0.53296,4.52763c-2.59146,1.07275 -4.25103,-2.39027 -2.33297,-4.57404c0,0 -1.43214,-1.31193 -4.669,-2.37359v0v0v0v0z" data-paper-data="{&quot;origPos&quot;:null,&quot;origRot&quot;:0}" id="Back_Leg2" fill="#e29339" stroke="#000000" stroke-width="1.52831" stroke-linecap="butt" stroke-linejoin="round"/><path d="M200.16121,153.12435v0v0v0v0c-0.84581,-2.70224 -1.61154,-4.98304 -1.61059,-4.98365c-2.45794,1.55256 -5.61667,-0.63061 -4.15027,-3.0213c1.4664,-2.3907 4.55436,0.18377 4.55436,0.18377c-0.98874,-0.84305 -3.26447,-3.83578 0.6047,-5.04338c3.86985,-1.20981 3.09594,4.4023 3.09594,4.4023c0,0 0.4027,-4.9423 4.00516,-3.82457c3.60263,1.11694 -1.10723,5.42624 -1.10723,5.42624c0.59762,4.18568 10.68054,21.86836 3.97973,24.25233c-6.70137,2.38374 -7.3384,-10.88689 -9.3718,-17.39173z" data-paper-data="{&quot;origPos&quot;:null,&quot;origRot&quot;:0}" id="Back_Leg1" fill="#e29339" stroke="#000000" stroke-width="1.52831" stroke-linecap="butt" stroke-linejoin="round"/><path d="M251.37028,146.67408v0v0v0v0c1.39162,-2.46521 2.53209,-4.58435 2.53182,-4.58325c-2.81327,-0.73117 -3.38234,-4.52817 -0.63544,-5.09408c2.74691,-0.56592 2.98162,3.4476 2.98162,3.4476c-0.06157,-1.29785 0.56521,-5.00554 4.09293,-3.00955c3.5298,1.99498 -1.09311,5.26982 -1.09311,5.26982c0,0 3.88033,-3.08732 5.52953,0.3049c1.64984,3.39172 -4.71454,2.90419 -4.71454,2.90419c-2.64488,3.29966 -8.64355,22.75096 -14.96673,19.49386c-6.32375,-3.25688 2.92051,-12.80028 6.27393,-18.73348z" data-paper-data="{&quot;origPos&quot;:null,&quot;origRot&quot;:0}" id="Front_Leg2" fill="#e29339" stroke="#000000" stroke-width="1.52831" stroke-linecap="butt" stroke-linejoin="round"/><path d="M258.4586,206.19862v0v0v0v0c0.91572,2.67914 1.73998,4.93988 1.74056,4.93949c2.4166,-1.61573 5.63174,0.48445 4.22776,2.91273c-1.40393,2.42729 -4.55759,-0.06511 -4.55759,-0.06511c1.01074,0.81627 3.36294,3.74954 -0.47314,5.05774c-3.83777,1.30975 -3.20973,-4.32096 -3.20973,-4.32096c0,0 -0.27424,4.95233 -3.90393,3.92829c-3.63135,-1.02363 0.96533,-5.45316 0.96533,-5.45316c-0.70679,-4.16939 -11.24689,-21.5837 -4.60974,-24.14099c6.63667,-2.55795 7.61798,10.69258 9.82049,17.14199z" data-paper-data="{&quot;origPos&quot;:null,&quot;origRot&quot;:0}" id="Front_Leg1" fill="#e29339" stroke="#000000" stroke-width="1.52831" stroke-linecap="butt" stroke-linejoin="round"/><path d="M255.8503,162.5483v0v0v0v0c2.8734,1.9749 5.9732,8.5986 5.7198,15.3222c0.0458,7.144 -5.0529,15.5333 -9.046,17.5997c-8.4262,4.3608 -17.6299,1.3941 -24.0195,1.8545c-4.9113,0.354 -8.2228,5.7404 -16.9705,5.3028c-14.405,-0.7195 -24.9447,-8.7194 -25.034,-22.1142c-0.0893,-13.3955 11.6076,-19.1992 22.9493,-20.0649c7.6906,-0.588 14.4829,4.1339 18.7631,3.763c8.1692,-0.7084 21.3273,-5.9997 27.6378,-1.6631z" data-paper-data="{&quot;origPos&quot;:null}" id="Body" fill="#e29339" stroke="#000000" stroke-width="1.52831" stroke-linecap="butt" stroke-linejoin="miter"/><path d="M273.3372,158.7392l3.2326,-8.0398" id="Whisker6" fill="none" stroke="#000000" stroke-width="1.52831" stroke-linecap="round" stroke-linejoin="miter"/><path d="M276.6223,160.4031l5.1337,-6.4165" id="Whisker5" fill="none" stroke="#000000" stroke-width="1.52831" stroke-linecap="round" stroke-linejoin="miter"/><path d="M280.0124,162.7531l6.1761,-1.7952" id="Whisker4" fill="none" stroke="#000000" stroke-width="1.52831" stroke-linecap="round" stroke-linejoin="miter"/><path d="M274.8341,196.6093l3.8882,6.1356" id="Whisker3" fill="none" stroke="#000000" stroke-width="1.52831" stroke-linecap="round" stroke-linejoin="miter"/><path d="M284.0893,199.9557l-6.0902,-5.5159" id="Whisker2" fill="none" stroke="#000000" stroke-width="1.52831" stroke-linecap="round" stroke-linejoin="miter"/><path d="M280.1783,192.315l6.3839,0.7866" id="Whisker1" fill="none" stroke="#000000" stroke-width="1.52831" stroke-linecap="round" stroke-linejoin="miter"/><path d="M248.9496,161.9609c21.5557,-17.4983 26.0977,-2.0102 26.0977,-2.0102c0,0 0.0733,0.0441 0.1116,0.0631c4.5089,2.2866 7.6916,3.0757 7.3407,18.4521c-0.4092,17.9382 -7.6655,18.1434 -7.6655,18.1434c-7.2539,14.9533 -24.8467,-3.5885 -24.8467,-3.5885" id="Head" fill="#e29339" stroke="#000000" stroke-width="1.52831" stroke-linecap="butt" stroke-linejoin="round"/><g id="L_Eye" stroke-width="0.76416" stroke-linecap="butt" stroke-linejoin="miter"><path d="M274.1305,188.0908c0.027,-0.7178 0.3432,-1.3567 0.8314,-1.8101c0.4888,-0.4526 1.1497,-0.7198 1.8675,-0.6928c0.7178,0.0271 1.3566,0.3433 1.81,0.8314c0.4527,0.4889 0.7199,1.1497 0.6928,1.8675c-0.027,0.7178 -0.3432,1.3567 -0.8314,1.8101c-0.4889,0.4526 -1.1497,0.7198 -1.8675,0.6928c-0.7178,-0.0271 -1.3566,-0.3433 -1.81,-0.8314c-0.4527,-0.4889 -0.7199,-1.1497 -0.6928,-1.8675v0v0z" id="White" fill="#ffffff" stroke="#000000"/><path d="M275.6307,187.5654c0.0169,-0.4475 0.2139,-0.8461 0.519,-1.1283c0.3043,-0.2829 0.7166,-0.4494 1.1641,-0.4325c0.4475,0.0168 0.8461,0.2139 1.1282,0.5189c0.283,0.3043 0.4494,0.7166 0.4326,1.1641c-0.0169,0.4475 -0.2139,0.8461 -0.519,1.1283c-0.3043,0.2829 -0.7166,0.4494 -1.1641,0.4325c-0.4475,-0.0169 -0.8461,-0.2139 -1.1282,-0.5189c-0.283,-0.3043 -0.4494,-0.7167 -0.4326,-1.1641v0v0z" id="Pupil" fill="#000000" stroke="none"/></g><g id="R_Eye" stroke-width="0.76416" stroke-linecap="butt" stroke-linejoin="miter"><path d="M275.0249,167.564c0.0271,-0.7178 0.3433,-1.3566 0.8314,-1.8101c0.4889,-0.4526 1.1497,-0.7198 1.8675,-0.6927c0.7178,0.027 1.3567,0.3432 1.8101,0.8313c0.4526,0.4889 0.7198,1.1498 0.6928,1.8676c-0.0271,0.7177 -0.3433,1.3566 -0.8314,1.81c-0.4889,0.4526 -1.1497,0.7199 -1.8675,0.6928c-0.7178,-0.0271 -1.3567,-0.3432 -1.8101,-0.8314c-0.4526,-0.4889 -0.7198,-1.1497 -0.6928,-1.8675v0v0z" id="White_1_" fill="#ffffff" stroke="#000000"/><path d="M276.5252,167.0386c0.0169,-0.4475 0.2139,-0.8461 0.5189,-1.1282c0.3043,-0.283 0.7167,-0.4494 1.1641,-0.4326c0.4475,0.0169 0.8462,0.2139 1.1283,0.519c0.2829,0.3043 0.4494,0.7166 0.4325,1.1641c-0.0168,0.4474 -0.2139,0.8461 -0.5189,1.1282c-0.3043,0.283 -0.7166,0.4494 -1.1641,0.4326c-0.4475,-0.0169 -0.8461,-0.2139 -1.1283,-0.519c-0.2829,-0.3043 -0.4494,-0.7166 -0.4325,-1.1641v0v0z" id="Pupil_1_" fill="#000000" stroke="none"/></g><path d="M281.5109,178.3813c0.0383,-1.0163 0.2566,-1.9296 0.5782,-2.585c0.3217,-0.6563 0.7472,-1.0532 1.1991,-1.0361c0.4518,0.017 0.8463,0.4448 1.1176,1.1234c0.2714,0.6778 0.4203,1.6049 0.382,2.6212c-0.0383,1.0164 -0.2565,1.9296 -0.5782,2.5851c-0.3217,0.6562 -0.7472,1.0531 -1.199,1.0361c-0.4519,-0.017 -0.8463,-0.4448 -1.1177,-1.1234c-0.2714,-0.6778 -0.4203,-1.6049 -0.382,-2.6213v0v0z" id="Nose" fill="#ec008c" stroke="#000000" stroke-width="1.30982" stroke-linecap="butt" stroke-linejoin="miter"/><g id="L_Ear"><path d="M259.5572,197.8191c-2.8617,-0.5002 -12.3021,2.02 -13.0553,1.0052c-0.754,-1.0157 0.7884,-1.7666 2.4457,-4.3087c1.6573,-2.5413 5.28,-9.9937 5.28,-9.9937" id="Outer_Ear" fill="#e29339" stroke="#000000" stroke-width="1.52831" stroke-linecap="round" stroke-linejoin="round"/><path d="M249.8455,196.7862v0v0v0v0c0,0 4.2394,-5.0501 5.9645,-8.6205c0.562,2.1937 2.2168,5.867 2.9684,7.4721c0,0 -0.551,-0.0697 -0.5496,-0.0681c-1.8542,-0.3704 -8.3833,1.2165 -8.3833,1.2165z" id="Inner_Ear" fill="#58595b" stroke="none" stroke-width="0.76416" stroke-linecap="butt" stroke-linejoin="miter"/></g><g data-paper-data="{&quot;origPos&quot;:null}" id="R_Ear"><path d="M253.236,171.8953c0,0 -3.0514,-7.7039 -4.5127,-10.362c-1.4613,-2.6596 -2.9428,-3.5253 -2.1145,-4.4813c0.8274,-0.9545 10.0506,2.2684 12.9426,1.9859" id="Outer_Ear_1_" fill="#e29339" stroke="#000000" stroke-width="1.52831" stroke-linecap="round" stroke-linejoin="round"/><path d="M249.7903,159.3353c0,0 6.3912,2.0738 8.268,1.844c-0.0016,0.0023 0.5531,-0.0265 0.5531,-0.0265c-0.8703,1.544 -2.7968,5.0815 -3.5223,7.2275c-1.4523,-3.6902 -5.2988,-9.045 -5.2988,-9.045v0v0v0z" id="Inner_Ear_1_" fill="#58595b" stroke="none" stroke-width="0.76416" stroke-linecap="butt" stroke-linejoin="miter"/></g><path d="M190.7575,182.7568c-0.4905,2.1403 -2.6204,3.4831 -4.7648,3.0008c-7.2469,-1.6266 -12.8675,-0.875 -16.7057,2.2357c-6.3798,5.1698 -6.4353,15.5921 -6.4339,15.6946c0.0269,2.208 -1.7379,4.0127 -3.9436,4.0404c-2.2042,0.0278 -4.0126,-1.7387 -4.0397,-3.9429c-0.0071,-0.5829 -0.0631,-14.3336 9.3906,-21.9959c5.8308,-4.7248 13.7319,-6.0107 23.4811,-3.821c2.1505,0.4826 3.5031,2.6189 3.0205,4.7694c-0.0017,0.006 -0.0027,0.0121 -0.0045,0.0189v0v0v0v0z" id="Tail" fill="#e29339" stroke="#000000" stroke-width="1.52831" stroke-linecap="butt" stroke-linejoin="miter"/></g></g></svg>